<?xml version="1.0" encoding="utf-8"?>
<!-- Generator: Adobe Illustrator 15.0.0, SVG Export Plug-In . SVG Version: 6.00 Build 0)  -->
<!DOCTYPE svg PUBLIC "-//W3C//DTD SVG 1.1//EN" "http://www.w3.org/Graphics/SVG/1.1/DTD/svg11.dtd">
<svg version="1.1" id="Layer_1" xmlns="http://www.w3.org/2000/svg" x="0px" y="0px"
     width="140px" height="35px" viewBox="32.208 0 140 35" enable-background="new 32.208 0 140 35" xml:space="preserve">
<linearGradient id="SVGID_1_" gradientUnits="userSpaceOnUse" x1="32.2085" y1="17.5" x2="85.4922" y2="17.5">
	<stop  offset="0" style="stop-color:#FF0073"/>
	<stop  offset="1" style="stop-color:#FF001B"/>
</linearGradient>
<path fill="url(#SVGID_1_)" d="M82.604,22.154l0.006-0.004c-6.096-4.323-7.039-6.471-6.4-14.578l-0.004,0.002
	c0.016-0.204,0.027-0.41,0.027-0.619C76.232,3.114,73.48,0,70.084,0c-3.227,0-5.869,2.815-6.123,6.393l-0.004-0.004
	c-0.379,5.231-1.139,7.505-3.432,9.264c-1.003,0.77-2.347,0.77-3.35,0c-2.294-1.759-3.053-4.033-3.432-9.264l-0.004,0.004
	C53.485,2.815,50.844,0,47.616,0c-3.396,0-6.148,3.114-6.148,6.956c0,0.209,0.012,0.415,0.027,0.619l-0.003-0.002
	c0.637,8.107-0.306,10.255-6.401,14.578l0.006,0.004c-2.006,1.424-3.238,4.113-2.8,7.086c0.44,2.984,2.648,5.352,5.305,5.709
	c3.733,0.504,6.903-2.782,6.903-6.904c0-0.209-0.012-0.414-0.027-0.619l0.003,0.002c-0.432-5.487-0.131-8.245,1.996-10.795
	c1.071-1.285,2.859-1.483,4.083-0.387c1.891,1.694,2.45,3.909,2.936,7.981l0.005-0.005c0.352,2.989,2.61,5.298,5.349,5.298
	c2.738,0,4.996-2.309,5.349-5.298l0.004,0.005c0.486-4.072,1.045-6.287,2.938-7.981c1.223-1.096,3.012-0.897,4.084,0.387
	c2.125,2.55,2.428,5.308,1.996,10.795l0.002-0.002c-0.016,0.205-0.027,0.41-0.027,0.619c0,4.122,3.17,7.408,6.904,6.904
	c2.656-0.357,4.863-2.725,5.305-5.709C85.842,26.268,84.609,23.578,82.604,22.154z"/>
<g>
	<path fill="#FFFFFF" d="M87.631,20.48c-1.008-1.081-1.512-2.465-1.512-4.151c0-1.686,0.502-3.056,1.502-4.111
		c1-1.054,2.246-1.582,3.738-1.582c0.873,0,1.643,0.198,2.307,0.594c0.666,0.396,1.18,0.917,1.541,1.562v-1.975h2.318v11.103h-2.318
		v-2.075c-0.375,0.685-0.893,1.232-1.551,1.642c-0.658,0.41-1.424,0.615-2.297,0.615C89.881,22.103,88.639,21.562,87.631,20.48z
		 M94.211,19.09c0.664-0.679,0.996-1.588,0.996-2.73c0-1.142-0.332-2.048-0.996-2.72c-0.666-0.672-1.455-1.008-2.367-1.008
		c-0.914,0-1.703,0.33-2.369,0.987c-0.664,0.659-0.996,1.559-0.996,2.7c0,1.142,0.332,2.059,0.996,2.75
		c0.666,0.692,1.455,1.038,2.369,1.038C92.756,20.107,93.545,19.769,94.211,19.09z"/>
	<path fill="#FFFFFF" d="M100.789,20.48c-1.008-1.081-1.512-2.465-1.512-4.151c0-1.686,0.502-3.056,1.502-4.111
		c1-1.054,2.246-1.582,3.738-1.582c0.873,0,1.643,0.198,2.307,0.594c0.666,0.396,1.18,0.917,1.541,1.562v-1.975h2.318v11.285
		c0,1.558-0.48,2.831-1.441,3.818s-2.24,1.48-3.838,1.48c-1.6,0-2.895-0.353-3.889-1.058s-1.559-1.662-1.693-2.871h2.277
		c0.174,0.577,0.547,1.044,1.117,1.4c0.572,0.355,1.287,0.534,2.146,0.534s1.576-0.282,2.146-0.847s0.855-1.384,0.855-2.458v-2.257
		c-0.375,0.685-0.893,1.232-1.551,1.642c-0.658,0.41-1.424,0.615-2.297,0.615C103.039,22.103,101.797,21.562,100.789,20.48z
		 M107.369,19.09c0.664-0.679,0.996-1.588,0.996-2.73c0-1.142-0.332-2.048-0.996-2.72c-0.666-0.672-1.455-1.008-2.367-1.008
		c-0.914,0-1.703,0.33-2.369,0.987c-0.664,0.659-0.996,1.559-0.996,2.7c0,1.142,0.332,2.059,0.996,2.75
		c0.666,0.692,1.455,1.038,2.369,1.038C105.914,20.107,106.703,19.769,107.369,19.09z"/>
	<path fill="#FFFFFF" d="M117.877,22.103c-1.611,0-2.922-0.524-3.93-1.572s-1.512-2.438-1.512-4.171c0-1.733,0.512-3.12,1.533-4.161
		c1.02-1.041,2.34-1.562,3.959-1.562s2.932,0.5,3.939,1.501c1.008,1.001,1.512,2.307,1.512,3.919c0,0.39-0.027,0.752-0.082,1.087
		h-8.502c0.053,0.928,0.365,1.663,0.936,2.207c0.572,0.544,1.287,0.816,2.146,0.816c1.25,0,2.129-0.518,2.641-1.552h2.479
		c-0.336,1.021-0.947,1.857-1.834,2.509S119.18,22.103,117.877,22.103z M120.074,13.387c-0.592-0.544-1.311-0.816-2.156-0.816
		c-0.848,0-1.555,0.272-2.127,0.816c-0.57,0.544-0.896,1.273-0.977,2.186h6.166C120.967,14.66,120.664,13.931,120.074,13.387z"/>
	<path fill="#FFFFFF" d="M125.131,21.921V7.009h2.297v14.912H125.131z"/>
	<path fill="#FFFFFF" d="M129.947,21.921V7.009h2.297v14.912H129.947z"/>
	<path fill="#FFFFFF" d="M135.508,20.48c-1.008-1.081-1.512-2.465-1.512-4.151c0-1.686,0.502-3.056,1.502-4.111
		c1-1.054,2.246-1.582,3.738-1.582c0.873,0,1.643,0.198,2.307,0.594c0.666,0.396,1.18,0.917,1.541,1.562v-1.975h2.318v11.103h-2.318
		v-2.075c-0.375,0.685-0.893,1.232-1.551,1.642c-0.658,0.41-1.424,0.615-2.297,0.615C137.758,22.103,136.516,21.562,135.508,20.48z
		 M142.088,19.09c0.664-0.679,0.996-1.588,0.996-2.73c0-1.142-0.332-2.048-0.996-2.72c-0.666-0.672-1.455-1.008-2.367-1.008
		c-0.914,0-1.703,0.33-2.369,0.987c-0.664,0.659-0.996,1.559-0.996,2.7c0,1.142,0.332,2.059,0.996,2.75
		c0.666,0.692,1.455,1.038,2.369,1.038C140.633,20.107,141.422,19.769,142.088,19.09z"/>
	<path fill="#FFFFFF" d="M150.219,10.818v1.753c0.738-1.29,1.92-1.935,3.545-1.935c1.25,0,2.281,0.417,3.094,1.249
		c0.812,0.833,1.219,1.995,1.219,3.486v6.549h-2.275v-6.207c0-0.994-0.25-1.756-0.746-2.287c-0.498-0.53-1.176-0.796-2.035-0.796
		s-1.543,0.266-2.045,0.796c-0.504,0.531-0.756,1.293-0.756,2.287v6.207h-2.297V10.818H150.219z"/>
	<path fill="#FFFFFF" d="M165.32,22.103c-1.619,0-2.951-0.527-4-1.582c-1.047-1.055-1.572-2.438-1.572-4.151
		c0-1.713,0.541-3.097,1.623-4.151c1.08-1.054,2.428-1.582,4.039-1.582c1.613,0,2.959,0.527,4.041,1.582
		c1.082,1.055,1.621,2.435,1.621,4.141s-0.553,3.09-1.662,4.151C168.303,21.571,166.939,22.103,165.32,22.103z M167.709,19.16
		c0.67-0.672,1.006-1.605,1.006-2.801s-0.324-2.126-0.977-2.791s-1.441-0.997-2.367-0.997c-0.928,0-1.707,0.332-2.338,0.997
		s-0.947,1.599-0.947,2.801c0,1.203,0.309,2.136,0.928,2.8c0.617,0.665,1.387,0.998,2.307,0.998S167.037,19.832,167.709,19.16z"/>
</g>
</svg>
